<svg width="40" height="40" viewBox="0 0 40 40" fill="none" xmlns="http://www.w3.org/2000/svg">
<g clip-path="url(#clip0_71_1382)">
<path d="M20.009 11.0156C14.3305 11.0156 9.7501 15.0234 9.7501 19.9922C9.7501 24.9609 14.3305 28.9687 20.009 28.9687C25.6876 28.9687 30.268 24.9609 30.268 19.9922C30.268 15.0234 25.6876 11.0156 20.009 11.0156ZM20.009 25.8281C16.3394 25.8281 13.3394 23.2109 13.3394 19.9922C13.3394 16.7734 16.3305 14.1562 20.009 14.1562C23.6876 14.1562 26.6787 16.7734 26.6787 19.9922C26.6787 23.2109 23.6787 25.8281 20.009 25.8281ZM33.0805 10.6484C33.0805 11.8125 32.009 12.7422 30.6876 12.7422C29.3572 12.7422 28.2947 11.8047 28.2947 10.6484C28.2947 9.49219 29.3662 8.55469 30.6876 8.55469C32.009 8.55469 33.0805 9.49219 33.0805 10.6484ZM39.8751 12.7734C39.7233 9.96875 38.9912 7.48437 36.643 5.4375C34.3037 3.39062 31.4644 2.75 28.259 2.60937C24.9555 2.44531 15.0537 2.44531 11.7501 2.60937C8.55368 2.74219 5.71439 3.38281 3.36618 5.42969C1.01796 7.47656 0.294747 9.96094 0.134033 12.7656C-0.0534668 15.6562 -0.0534668 24.3203 0.134033 27.2109C0.285819 30.0156 1.01796 32.5 3.36618 34.5469C5.71439 36.5938 8.54475 37.2344 11.7501 37.375C15.0537 37.5391 24.9555 37.5391 28.259 37.375C31.4644 37.2422 34.3037 36.6016 36.643 34.5469C38.9822 32.5 39.7144 30.0156 39.8751 27.2109C40.0626 24.3203 40.0626 15.6641 39.8751 12.7734ZM35.6072 30.3125C34.9108 31.8437 33.5626 33.0234 31.8037 33.6406C29.1697 34.5547 22.9197 34.3437 20.009 34.3437C17.0983 34.3437 10.8394 34.5469 8.21439 33.6406C6.46439 33.0312 5.11618 31.8516 4.41082 30.3125C3.36618 28.0078 3.60725 22.5391 3.60725 19.9922C3.60725 17.4453 3.3751 11.9687 4.41082 9.67187C5.10725 8.14062 6.45546 6.96094 8.21439 6.34375C10.8483 5.42969 17.0983 5.64062 20.009 5.64062C22.9197 5.64062 29.1787 5.4375 31.8037 6.34375C33.5537 6.95312 34.9019 8.13281 35.6072 9.67187C36.6519 11.9766 36.4108 17.4453 36.4108 19.9922C36.4108 22.5391 36.6519 28.0156 35.6072 30.3125Z" fill="#34416A"/>
</g>
<defs>
<clipPath id="clip0_71_1382">
<rect width="40" height="40" fill="white"/>
</clipPath>
</defs>
</svg>
