<svg width="90" height="80" viewBox="0 0 90 80" fill="none" xmlns="http://www.w3.org/2000/svg">
<g clip-path="url(#clip0_71_1265)">
<path d="M70.1367 60.0313C66.252 54.0313 58.957 50 50.625 50H39.375C31.043 50 23.748 54.0313 19.8633 60.0313C26.0508 66.1563 35.0156 70 45 70C54.9844 70 63.9492 66.1406 70.1367 60.0313ZM0 40C0 29.3913 4.74106 19.2172 13.1802 11.7157C21.6193 4.21427 33.0653 0 45 0C56.9347 0 68.3807 4.21427 76.8198 11.7157C85.2589 19.2172 90 29.3913 90 40C90 50.6087 85.2589 60.7828 76.8198 68.2843C68.3807 75.7857 56.9347 80 45 80C33.0653 80 21.6193 75.7857 13.1802 68.2843C4.74106 60.7828 0 50.6087 0 40ZM45 42.5C48.3566 42.5 51.5758 41.3147 53.9493 39.205C56.3228 37.0952 57.6562 34.2337 57.6562 31.25C57.6562 28.2663 56.3228 25.4048 53.9493 23.295C51.5758 21.1853 48.3566 20 45 20C41.6434 20 38.4242 21.1853 36.0507 23.295C33.6772 25.4048 32.3438 28.2663 32.3438 31.25C32.3438 34.2337 33.6772 37.0952 36.0507 39.205C38.4242 41.3147 41.6434 42.5 45 42.5Z" fill="#40A2E2"/>
</g>
<defs>
<clipPath id="clip0_71_1265">
<rect width="90" height="80" fill="white"/>
</clipPath>
</defs>
</svg>
