<svg width="40" height="40" viewBox="0 0 40 40" fill="none" xmlns="http://www.w3.org/2000/svg">
<g clip-path="url(#clip0_71_1384)">
<path d="M39.9999 16.3992C36.069 16.4074 32.2346 15.3348 29.0383 13.3328V27.2953C29.0372 29.8813 28.1338 32.4054 26.449 34.5301C24.7642 36.6547 22.3783 38.2787 19.6102 39.1848C16.8421 40.0909 13.8239 40.236 10.959 39.6006C8.0942 38.9652 5.51931 37.5797 3.57869 35.6293C1.63806 33.6789 0.424192 31.2566 0.0993962 28.6863C-0.2254 26.1159 0.354358 23.5201 1.76115 21.2458C3.16793 18.9716 5.3347 17.1273 7.97171 15.9597C10.6087 14.792 13.5903 14.3566 16.5177 14.7117V21.7344C15.1781 21.3657 13.7396 21.3768 12.4077 21.7661C11.0757 22.1554 9.91841 22.9031 9.10103 23.9022C8.28364 24.9014 7.84797 26.101 7.85625 27.3298C7.86452 28.5585 8.3163 29.7536 9.14708 30.7443C9.97787 31.7349 11.1452 32.4706 12.4823 32.8462C13.8194 33.2217 15.2579 33.218 16.5925 32.8355C17.927 32.453 19.0893 31.7114 19.9134 30.7164C20.7375 29.7214 21.1812 28.5241 21.1811 27.2953V0H29.0383C29.0328 0.580578 29.0884 1.16036 29.2043 1.73203C29.4774 3.00819 30.0451 4.22219 30.8727 5.29979C31.7003 6.37739 32.7705 7.29593 34.0177 7.99922C35.7922 9.02585 37.8726 9.57305 39.9999 9.57266V16.3992Z" fill="#34416A"/>
</g>
<defs>
<clipPath id="clip0_71_1384">
<rect width="40" height="40" fill="white"/>
</clipPath>
</defs>
</svg>
